<?xml version="1.0" encoding="utf-8"?>
<!-- Generator: Adobe Illustrator 16.0.0, SVG Export Plug-In . SVG Version: 6.00 Build 0)  -->
<!DOCTYPE svg PUBLIC "-//W3C//DTD SVG 1.1//EN" "http://www.w3.org/Graphics/SVG/1.1/DTD/svg11.dtd">
<svg version="1.1" id="Layer_1" xmlns="http://www.w3.org/2000/svg" xmlns:xlink="http://www.w3.org/1999/xlink" x="0px" y="0px"
	 width="711.388px" height="491.166px" viewBox="0 0 711.388 491.166" enable-background="new 0 0 711.388 491.166"
	 xml:space="preserve">
<g>
	<g>
		<path fill="#AF153E" d="M200.024,314.332H174.05V109.734c0-33.689,27.409-61.098,61.099-61.098
			c33.69,0,61.099,27.408,61.099,61.098v143.203h-25.974V109.734c0-19.367-15.757-35.125-35.125-35.125
			c-19.367,0-35.124,15.758-35.124,35.125V314.332z"/>
	</g>
	<g>
		<path fill="#AF153E" d="M488.989,314.332h-25.974V109.734c0-19.367-15.758-35.125-35.126-35.125
			c-19.366,0-35.123,15.758-35.123,35.125v143.793h-25.975V109.734c0-33.689,27.408-61.098,61.098-61.098
			c33.69,0,61.1,27.408,61.1,61.098V314.332z"/>
	</g>
	<g>
		<path fill="#FF3351" d="M427.3,0c-41.604,0-77.766,23.422-96.15,57.768C312.767,23.422,276.57,0,234.964,0
			c-60.137,0-109.025,48.924-109.025,109.063v205.004h25.974V109.063c0-45.816,37.273-83.008,83.089-83.008
			c45.814,0,83.089,37.123,83.089,83.168h0.295v41.324h25.974v-41.484c0-45.816,37.127-83.088,82.941-83.088
			s82.941,37.271,82.941,83.088v205.004h25.975V109.063C536.216,48.924,487.438,0,427.3,0"/>
	</g>
	<g>
		<path fill="#FF3351" d="M414.608,109.814v143.184c0,19.367-15.609,35.258-34.978,35.258c-19.366,0-34.976-16.102-34.976-34.992
			h-0.297v-76.742h-25.974v76.477c0,19.367-15.757,35.125-35.125,35.125c-19.367,0-35.124-15.758-35.124-35.125V109.814h-25.975
			v143.184c0,33.689,27.409,61.098,61.099,61.098c19.602,0,37.071-9.279,48.26-23.672c11.188,14.393,28.511,23.672,48.111,23.672
			c33.691,0,60.951-27.408,60.951-61.098V109.814H414.608z"/>
	</g>
	<g>
		<g>
			<path fill="#FFFFFF" d="M70.772,342.568h7.317v80.264c-6.974,0-13.948,0-20.923,0V387.16l-17.035,17.836h-2.287L20.923,387.16
				v35.672c-6.974,0-13.948,0-20.923,0v-80.264h7.546l31.328,34.758L70.772,342.568z"/>
		</g>
		<g>
			<path fill="#FFFFFF" d="M176.188,412.77h-31.556l-4.688,10.063h-20.009v-2.973l36.015-78.09h8.804l36.13,78.09v2.973h-20.009
				L176.188,412.77z M160.296,374.24l-9.032,21.037h18.294L160.296,374.24z"/>
		</g>
		<g>
			<path fill="#FFFFFF" d="M275.547,341.883c16.578,0,34.529,9.033,37.616,30.412c-6.975,0-13.148,0-20.123,0
				c-2.858-8.117-8.918-11.775-17.493-11.775c-12.005,0-19.895,9.033-19.895,22.295c0,11.777,7.775,22.066,19.895,22.182
				c8.689,0,15.664-4.346,17.836-12.92c6.86,0,13.148,0,20.123,0c-2.973,22.637-20.923,31.557-37.959,31.557
				c-20.352,0.113-40.932-13.607-41.046-40.818C234.615,355.604,255.195,341.883,275.547,341.883z"/>
		</g>
		<g>
			<path fill="#FFFFFF" d="M407.376,344.055l13.605,42.533h0.344l3.544-13.605l10.176-30.186h20.352v3.088l-27.783,77.748h-11.776
				l-12.806-38.531h-0.343l-12.806,38.531h-11.319l-28.126-77.748v-3.088h20.694l10.29,30.186l3.545,13.605h0.343l13.377-42.533
				C401.888,344.055,404.175,344.055,407.376,344.055z"/>
		</g>
		<g>
			<path fill="#FFFFFF" d="M539.777,412.77h-31.557l-4.688,10.063h-20.009v-2.973l36.016-78.09h8.804l36.129,78.09v2.973h-20.008
				L539.777,412.77z M523.885,374.24l-9.033,21.037h18.294L523.885,374.24z"/>
		</g>
		<g>
			<path fill="#FFFFFF" d="M636.391,422.832h-20.237v-33.615l-26.868-43.332v-3.088h22.066l14.521,26.641h0.8l14.521-26.641h22.181
				v3.088l-26.982,43.332V422.832z"/>
		</g>
	</g>
	<g>
		<path fill="#FFFFFF" d="M177.669,487.598c-5.549,2.52-11.147,3.568-16.604,3.568c-11.594,0-17.858-7.607-14.443-19.518
			c3.415-11.908,14.043-19.518,25.637-19.518c5.876,0,10.693,1.313,13.425,4.775l-7.576,6.295c-1.542-2.309-3.871-3.514-8.016-3.514
			c-6.978,0-12.985,5.035-14.971,11.961s1.133,11.963,8.111,11.963c3.567,0,6.476-0.996,8.238-1.836l1.73-6.035h-6.663l2.167-7.555
			h14.531L177.669,487.598z"/>
		<path fill="#FFFFFF" d="M197.17,453.076h25.233l-2.167,7.555h-17.05l-1.985,6.926h16.105l-2.167,7.555h-16.105l-2.166,7.557
			h17.994l-2.167,7.555h-26.178L197.17,453.076z"/>
		<path fill="#FFFFFF" d="M237.114,460.316h-10.597l2.076-7.24h29.378l-2.076,7.24h-10.598l-8.576,29.906h-8.184L237.114,460.316z"
			/>
		<path fill="#FFFFFF" d="M286.95,460.316h-10.597l2.076-7.24h29.378l-2.076,7.24h-10.598l-8.576,29.906h-8.184L286.95,460.316z"/>
		<path fill="#FFFFFF" d="M314.05,453.076h8.184l-3.973,13.852h15.896l3.973-13.852h8.184l-10.652,37.146h-8.184l4.604-16.057
			h-15.896l-4.604,16.057h-8.184L314.05,453.076z"/>
		<path fill="#FFFFFF" d="M355.965,453.076h14.374c7.606,0,13.254,2.623,10.771,11.279c-1.489,5.195-5.428,9.234-10.945,10.18
			l4.944,15.688h-9.81l-3.507-14.848h-4.039l-4.258,14.848h-8.184L355.965,453.076z M359.74,468.447h4.826
			c2.99,0,6.901-0.104,8.061-4.145c1.067-3.725-2.124-4.301-5.114-4.301h-5.351L359.74,468.447z"/>
		<path fill="#FFFFFF" d="M391.951,453.076h8.184l-10.652,37.146h-8.184L391.951,453.076z"/>
		<path fill="#FFFFFF" d="M409.997,453.076h8.184l-8.485,29.592h15.161l-2.167,7.555h-23.345L409.997,453.076z"/>
		<path fill="#FFFFFF" d="M440.267,453.076h8.184l-8.485,29.592h15.161l-2.167,7.555h-23.345L440.267,453.076z"/>
		<path fill="#FFFFFF" d="M470.536,453.076h25.233l-2.167,7.555h-17.05l-1.985,6.926h16.105l-2.167,7.555H472.4l-2.166,7.557h17.994
			l-2.167,7.555h-26.178L470.536,453.076z"/>
		<path fill="#FFFFFF" d="M505.37,453.076h12.275c11.961,0,20.521,5.09,16.624,18.678c-3.445,12.014-15.105,18.469-26.175,18.469
			h-13.377L505.37,453.076z M505.068,482.668h4.249c7.606,0,14.152-2.887,16.574-11.334c2.092-7.293-2.754-10.703-9.679-10.703
			h-4.826L505.068,482.668z"/>
	</g>
	<g>
		<g>
			<rect x="85.687" y="464.676" fill="#AF153E" width="46" height="6"/>
		</g>
	</g>
	<g>
		<g>
			<rect x="69.687" y="476.676" fill="#FF3351" width="57" height="6"/>
		</g>
	</g>
	<g>
		<g>
			<rect x="548.687" y="476.676" fill="#AF153E" width="46" height="6"/>
		</g>
	</g>
	<g>
		<g>
			<rect x="553.687" y="464.676" fill="#FF3351" width="57" height="6"/>
		</g>
	</g>
</g>
<g>
	<g>
		<g enable-background="new    ">
			<path fill="#FFFFFF" d="M685.164,355.952v-20.243h8.628c1.734,0,3.054,0.183,3.956,0.546s1.624,1.006,2.164,1.926
				c0.539,0.921,0.81,1.938,0.81,3.052c0,1.437-0.447,2.646-1.341,3.632s-2.274,1.611-4.142,1.878
				c0.682,0.341,1.199,0.677,1.553,1.008c0.752,0.718,1.465,1.615,2.138,2.692l3.385,5.51h-3.239l-2.575-4.212
				c-0.752-1.215-1.371-2.145-1.858-2.789c-0.486-0.645-0.922-1.095-1.307-1.353c-0.386-0.258-0.777-0.438-1.175-0.539
				c-0.292-0.064-0.771-0.097-1.434-0.097h-2.987v8.989H685.164z M687.739,344.644h5.535c1.177,0,2.098-0.127,2.762-0.38
				c0.663-0.253,1.168-0.658,1.513-1.216c0.346-0.557,0.518-1.161,0.518-1.815c0-0.957-0.334-1.744-1.002-2.361
				c-0.668-0.616-1.724-0.925-3.166-0.925h-6.159V344.644z"/>
		</g>
	</g>
	<g>
		<path fill="#FFFFFF" d="M692.388,364.283c-10.477,0-19-8.523-19-19s8.523-19,19-19s19,8.523,19,19
			S702.864,364.283,692.388,364.283z M692.388,328.283c-9.374,0-17,7.626-17,17s7.626,17,17,17s17-7.626,17-17
			S701.762,328.283,692.388,328.283z"/>
	</g>
</g>
</svg>
