<?xml version="1.0" encoding="utf-8"?>
<!-- Generator: Adobe Illustrator 20.0.0, SVG Export Plug-In . SVG Version: 6.00 Build 0)  -->
<svg version="1.1" id="Layer_1" xmlns="http://www.w3.org/2000/svg" xmlns:xlink="http://www.w3.org/1999/xlink" x="0px" y="0px"
	 viewBox="0 0 1763.8 1305.9" style="enable-background:new 0 0 1763.8 1305.9;" xml:space="preserve">
<style type="text/css">
	.st0{fill:#AF153E;}
	.st1{fill:#FF3351;}
	.st2{fill:#FFFFFF;}
</style>
<g>
	<path class="st0" d="M531.8,835.8h-69.1v-544c0-89.6,72.9-162.5,162.5-162.5c89.6,0,162.5,72.9,162.5,162.5v380.8h-69.1V291.8
		c0-51.5-41.9-93.4-93.4-93.4c-51.5,0-93.4,41.9-93.4,93.4V835.8z"/>
	<path class="st0" d="M1300.2,835.8h-69.1v-544c0-51.5-41.9-93.4-93.4-93.4c-51.5,0-93.4,41.9-93.4,93.4v382.3h-69.1V291.8
		c0-89.6,72.9-162.5,162.4-162.5c89.6,0,162.5,72.9,162.5,162.5V835.8z"/>
	<path class="st1" d="M1136.1,0c-110.6,0-206.8,62.3-255.7,153.6C831.6,62.3,735.4,0,624.7,0C464.8,0,334.9,130.1,334.9,290v545.1
		h69.1V290c0-121.8,99.1-220.7,220.9-220.7c121.8,0,220.9,98.7,220.9,221.1h0.8v109.9h69.1V290c0-121.8,98.7-220.9,220.5-220.9
		c121.8,0,220.5,99.1,220.5,220.9v545.1h69.1V290C1425.7,130.1,1296,0,1136.1,0"/>
	<path class="st1" d="M1102.4,292v380.7c0,51.5-41.5,93.7-93,93.7c-51.5,0-93-42.8-93-93h-0.8v-204h-69.1v203.3
		c0,51.5-41.9,93.4-93.4,93.4c-51.5,0-93.4-41.9-93.4-93.4V292h-69.1v380.7c0,89.6,72.9,162.4,162.5,162.4
		c52.1,0,98.6-24.7,128.3-62.9c29.7,38.3,75.8,62.9,127.9,62.9c89.6,0,162.1-72.9,162.1-162.4V292H1102.4z"/>
	<g>
		<path class="st2" d="M188.2,910.8h19.5v213.4c-18.5,0-37.1,0-55.6,0v-94.8l-45.3,47.4h-6.1l-45-47.4v94.8c-18.5,0-37.1,0-55.6,0
			V910.8h20.1l83.3,92.4L188.2,910.8z"/>
		<path class="st2" d="M468.5,1097.5h-83.9l-12.5,26.8h-53.2v-7.9l95.8-207.6h23.4l96.1,207.6v7.9h-53.2L468.5,1097.5z M426.2,995.1
			l-24,55.9h48.6L426.2,995.1z"/>
		<path class="st2" d="M732.6,909c44.1,0,91.8,24,100,80.9c-18.5,0-35,0-53.5,0c-7.6-21.6-23.7-31.3-46.5-31.3
			c-31.9,0-52.9,24-52.9,59.3c0,31.3,20.7,58.7,52.9,59c23.1,0,41.6-11.6,47.4-34.4c18.2,0,35,0,53.5,0
			c-7.9,60.2-55.6,83.9-100.9,83.9c-54.1,0.3-108.8-36.2-109.1-108.5C623.8,945.5,678.5,909,732.6,909z"/>
		<path class="st2" d="M1083.2,914.8l36.2,113.1h0.9l9.4-36.2l27.1-80.3h54.1v8.2l-73.9,206.7h-31.3l-34-102.4h-0.9l-34,102.4h-30.1
			l-74.8-206.7v-8.2h55l27.4,80.3l9.4,36.2h0.9l35.6-113.1C1068.6,914.8,1074.6,914.8,1083.2,914.8z"/>
		<path class="st2" d="M1435.2,1097.5h-83.9l-12.5,26.8h-53.2v-7.9l95.8-207.6h23.4l96.1,207.6v7.9h-53.2L1435.2,1097.5z
			 M1392.9,995.1l-24,55.9h48.6L1392.9,995.1z"/>
		<path class="st2" d="M1692.1,1124.3h-53.8v-89.4l-71.4-115.2v-8.2h58.7l38.6,70.8h2.1l38.6-70.8h59v8.2l-71.7,115.2V1124.3z"/>
	</g>
	<g>
		<path class="st2" d="M472.4,1296.5c-14.8,6.7-29.6,9.5-44.1,9.5c-30.8,0-47.5-20.2-38.4-51.9c9.1-31.7,37.3-51.9,68.2-51.9
			c15.6,0,28.4,3.5,35.7,12.7l-20.1,16.7c-4.1-6.1-10.3-9.3-21.3-9.3c-18.6,0-34.5,13.4-39.8,31.8c-5.3,18.4,3,31.8,21.6,31.8
			c9.5,0,17.2-2.7,21.9-4.9l4.6-16h-17.7l5.8-20.1h38.6L472.4,1296.5z"/>
		<path class="st2" d="M524.2,1204.7h67.1l-5.8,20.1h-45.3l-5.3,18.4h42.8l-5.8,20.1h-42.8l-5.8,20.1h47.8l-5.8,20.1h-69.6
			L524.2,1204.7z"/>
		<path class="st2" d="M630.5,1223.9h-28.2l5.5-19.3h78.1l-5.5,19.3h-28.2l-22.8,79.5h-21.8L630.5,1223.9z"/>
		<path class="st2" d="M763,1223.9h-28.2l5.5-19.3h78.1l-5.5,19.3h-28.2l-22.8,79.5h-21.8L763,1223.9z"/>
		<path class="st2" d="M835,1204.7h21.8l-10.6,36.8h42.3l10.6-36.8h21.8l-28.3,98.8h-21.8l12.2-42.7h-42.3l-12.2,42.7h-21.8
			L835,1204.7z"/>
		<path class="st2" d="M946.5,1204.7h38.2c20.2,0,35.2,7,28.6,30c-4,13.8-14.4,24.6-29.1,27.1l13.1,41.7h-26.1L962,1264h-10.7
			l-11.3,39.5h-21.8L946.5,1204.7z M956.5,1245.5h12.8c8,0,18.3-0.3,21.4-11c2.8-9.9-5.6-11.4-13.6-11.4h-14.2L956.5,1245.5z"/>
		<path class="st2" d="M1042.1,1204.7h21.8l-28.3,98.8h-21.8L1042.1,1204.7z"/>
		<path class="st2" d="M1090.1,1204.7h21.8l-22.6,78.7h40.3l-5.8,20.1h-62.1L1090.1,1204.7z"/>
		<path class="st2" d="M1170.6,1204.7h21.8l-22.6,78.7h40.3l-5.8,20.1h-62.1L1170.6,1204.7z"/>
		<path class="st2" d="M1251.1,1204.7h67.1l-5.8,20.1h-45.3l-5.3,18.4h42.8l-5.8,20.1H1256l-5.8,20.1h47.8l-5.8,20.1h-69.6
			L1251.1,1204.7z"/>
		<path class="st2" d="M1343.7,1204.7h32.6c31.8,0,54.6,13.5,44.2,49.7c-9.2,31.9-40.2,49.1-69.6,49.1h-35.6L1343.7,1204.7z
			 M1342.9,1283.3h11.3c20.2,0,37.6-7.7,44.1-30.1c5.6-19.4-7.3-28.5-25.7-28.5h-12.8L1342.9,1283.3z"/>
	</g>
	<g>
		<rect x="227.9" y="1235.1" class="st0" width="122" height="16"/>
	</g>
	<g>
		<rect x="184.9" y="1267.1" class="st1" width="152" height="16"/>
	</g>
	<g>
		<rect x="1458.9" y="1267.1" class="st0" width="122" height="16"/>
	</g>
	<g>
		<rect x="1471.9" y="1235.1" class="st1" width="152" height="16"/>
	</g>
</g>
</svg>
